<svg width="21" height="19" viewBox="0 0 21 19" fill="none" xmlns="http://www.w3.org/2000/svg">
<g clip-path="url(#clip0_2_228)">
<path d="M0 3.875H20.25C20.25 2.63398 19.241 1.625 18 1.625H2.25C1.00898 1.625 0 2.63398 0 3.875ZM0 5V15.125C0 16.366 1.00898 17.375 2.25 17.375H18C19.241 17.375 20.25 16.366 20.25 15.125V5H0ZM2.25 14.7488C2.25 13.7117 3.09023 12.875 4.12383 12.875H8.25117C9.28828 12.875 10.125 13.7152 10.125 14.7488C10.125 14.9562 9.95625 15.125 9.74883 15.125H2.62617C2.41875 15.125 2.25 14.9562 2.25 14.7488ZM6.1875 7.25C6.78424 7.25 7.35653 7.48705 7.77849 7.90901C8.20045 8.33097 8.4375 8.90326 8.4375 9.5C8.4375 10.0967 8.20045 10.669 7.77849 11.091C7.35653 11.5129 6.78424 11.75 6.1875 11.75C5.59076 11.75 5.01847 11.5129 4.59651 11.091C4.17455 10.669 3.9375 10.0967 3.9375 9.5C3.9375 8.90326 4.17455 8.33097 4.59651 7.90901C5.01847 7.48705 5.59076 7.25 6.1875 7.25ZM12.375 7.8125C12.375 7.50313 12.6281 7.25 12.9375 7.25H17.4375C17.7469 7.25 18 7.50313 18 7.8125C18 8.12187 17.7469 8.375 17.4375 8.375H12.9375C12.6281 8.375 12.375 8.12187 12.375 7.8125ZM12.375 10.0625C12.375 9.75313 12.6281 9.5 12.9375 9.5H17.4375C17.7469 9.5 18 9.75313 18 10.0625C18 10.3719 17.7469 10.625 17.4375 10.625H12.9375C12.6281 10.625 12.375 10.3719 12.375 10.0625ZM12.375 12.3125C12.375 12.0031 12.6281 11.75 12.9375 11.75H17.4375C17.7469 11.75 18 12.0031 18 12.3125C18 12.6219 17.7469 12.875 17.4375 12.875H12.9375C12.6281 12.875 12.375 12.6219 12.375 12.3125Z" fill="#028D00"/>
</g>
<defs>
<clipPath id="clip0_2_228">
<path d="M0 0.5H20.25V18.5H0V0.5Z" fill="white"/>
</clipPath>
</defs>
</svg>
