<?xml version="1.0" encoding="UTF-8"?> <svg xmlns="http://www.w3.org/2000/svg" width="1699" height="782" viewBox="0 0 1699 782" fill="none"><ellipse cx="794" cy="356.5" rx="794" ry="346.5" fill="#008D00"></ellipse><path d="M435.825 98.7224C490.938 96.6812 535.674 112.756 570.034 146.946C604.565 181.136 621.83 223.917 621.83 275.287C621.83 319.173 608.988 357.786 583.302 391.126C549.282 435.352 501.229 457.465 439.142 457.465C376.885 457.465 328.746 436.373 294.726 394.188C267.85 360.848 254.412 321.3 254.412 275.542C254.412 224.172 271.847 181.391 306.718 147.201C341.759 112.841 384.795 96.6812 435.825 98.7224ZM438.887 115.052C407.248 115.052 383.179 131.212 366.679 163.531C353.241 190.067 346.522 228.169 346.522 277.839C346.522 336.864 356.898 380.495 377.65 408.731C392.109 428.463 412.351 438.329 438.376 438.329C455.897 438.329 470.525 434.076 482.262 425.571C497.231 414.685 508.883 397.335 517.218 373.521C525.553 349.536 529.721 318.323 529.721 279.88C529.721 234.123 525.468 199.932 516.963 177.309C508.458 154.516 497.571 138.441 484.304 129.085C471.206 119.73 456.067 115.052 438.887 115.052ZM736.414 210.989V265.081C752.233 240.417 766.096 224.087 778.003 216.092C789.91 207.927 801.392 203.845 812.449 203.845C821.974 203.845 829.544 206.822 835.157 212.775C840.941 218.559 843.832 226.808 843.832 237.525C843.832 248.922 841.026 257.767 835.412 264.061C829.969 270.354 823.335 273.501 815.511 273.501C806.495 273.501 798.671 270.609 792.037 264.826C785.403 259.043 781.49 255.811 780.3 255.13C778.599 254.11 776.643 253.599 774.431 253.599C769.498 253.599 764.821 255.47 760.398 259.213C753.424 264.996 748.151 273.246 744.579 283.962C739.135 300.462 736.414 318.663 736.414 338.565V393.422L736.669 407.711C736.669 417.407 737.264 423.615 738.455 426.337C740.496 430.93 743.473 434.332 747.385 436.543C751.468 438.584 758.272 439.86 767.797 440.37V449.556H638.946V440.37C649.322 439.52 656.296 436.713 659.868 431.95C663.61 427.017 665.482 414.175 665.482 393.422V261.509C665.482 247.901 664.801 239.226 663.44 235.484C661.739 230.721 659.273 227.234 656.041 225.022C652.809 222.811 647.111 221.28 638.946 220.43V210.989H736.414ZM1044.15 449.556H836.453V443.942L967.601 226.553H929.329C912.829 226.553 901.007 228.084 893.863 231.146C886.718 234.038 880.935 238.801 876.512 245.434C872.09 251.898 867.497 263.55 862.734 280.39H853.804V210.989H1054.61V217.878L924.481 433.226H940.81C973.47 433.226 997.029 428.548 1011.49 419.193C1025.95 409.837 1036.83 392.742 1044.15 367.907H1051.29L1044.15 449.556ZM1290.39 210.989V397.76C1290.39 415.961 1292.09 427.357 1295.49 431.95C1298.89 436.373 1305.78 439.18 1316.16 440.37V449.556H1218.95V417.662C1207.55 431.27 1196.15 441.221 1184.76 447.514C1173.36 453.638 1160.6 456.7 1146.48 456.7C1133.04 456.7 1121.05 452.617 1110.51 444.453C1100.13 436.118 1093.16 426.422 1089.58 415.365C1086.01 404.309 1084.23 385.002 1084.23 357.446V262.785C1084.23 244.754 1082.52 233.527 1079.12 229.105C1075.89 224.682 1069 221.79 1058.46 220.43V210.989H1155.67V374.031C1155.67 391.041 1156.43 402.012 1157.96 406.945C1159.67 411.878 1162.22 415.621 1165.62 418.172C1169.19 420.724 1173.27 421.999 1177.87 421.999C1183.99 421.999 1189.52 420.383 1194.45 417.151C1201.26 412.729 1209.42 403.798 1218.95 390.361V262.785C1218.95 244.754 1217.24 233.527 1213.84 229.105C1210.61 224.682 1203.72 221.79 1193.18 220.43V210.989H1290.39Z" fill="white"></path><path d="M542.653 629.357L491.596 518.181V606.459C491.596 614.579 492.473 619.646 494.226 621.66C496.63 624.388 500.43 625.752 505.627 625.752H510.304V629.357H464.313V625.752H468.99C474.576 625.752 478.539 624.063 480.877 620.685C482.306 618.607 483.021 613.865 483.021 606.459V520.129C483.021 514.283 482.371 510.061 481.072 507.462C480.163 505.579 478.474 504.02 476.005 502.785C473.602 501.486 469.704 500.837 464.313 500.837V497.231H501.729L549.669 600.613L596.829 497.231H634.245V500.837H629.665C624.014 500.837 620.019 502.525 617.68 505.903C616.251 507.982 615.537 512.724 615.537 520.129V606.459C615.537 614.579 616.446 619.646 618.265 621.66C620.669 624.388 624.469 625.752 629.665 625.752H634.245V629.357H578.121V625.752H582.798C588.449 625.752 592.412 624.063 594.685 620.685C596.114 618.607 596.829 613.865 596.829 606.459V518.181L545.869 629.357H542.653ZM659.774 573.72C659.709 586.972 662.924 597.365 669.42 604.9C675.916 612.436 683.549 616.203 692.318 616.203C698.164 616.203 703.231 614.612 707.518 611.429C711.871 608.181 715.508 602.659 718.432 594.864L721.452 596.813C720.088 605.712 716.125 613.832 709.565 621.173C703.004 628.448 694.787 632.086 684.913 632.086C674.195 632.086 665.003 627.928 657.338 619.614C649.738 611.234 645.938 599.996 645.938 585.9C645.938 570.635 649.835 558.747 657.63 550.238C665.49 541.663 675.331 537.376 687.154 537.376C697.158 537.376 705.375 540.689 711.806 547.315C718.237 553.875 721.452 562.677 721.452 573.72H659.774ZM659.774 568.069H701.088C700.763 562.352 700.081 558.325 699.041 555.987C697.417 552.349 694.981 549.491 691.733 547.412C688.55 545.333 685.205 544.294 681.697 544.294C676.306 544.294 671.466 546.405 667.179 550.627C662.957 554.785 660.488 560.599 659.774 568.069ZM796.479 619.321C792.127 623.868 787.872 627.149 783.715 629.163C779.558 631.111 775.076 632.086 770.269 632.086C760.525 632.086 752.015 628.026 744.74 619.906C737.464 611.721 733.827 601.23 733.827 588.433C733.827 575.637 737.854 563.944 745.909 553.356C753.964 542.702 764.325 537.376 776.992 537.376C784.852 537.376 791.348 539.877 796.479 544.879V528.412C796.479 518.213 796.22 511.944 795.7 509.606C795.245 507.267 794.498 505.676 793.459 504.832C792.42 503.987 791.12 503.565 789.561 503.565C787.872 503.565 785.631 504.084 782.838 505.124L781.571 501.713L808.172 490.8H812.557V593.987C812.557 604.446 812.784 610.844 813.239 613.183C813.758 615.456 814.538 617.048 815.577 617.957C816.682 618.867 817.948 619.321 819.377 619.321C821.131 619.321 823.47 618.769 826.393 617.665L827.465 621.075L800.962 632.086H796.479V619.321ZM796.479 612.501V566.51C796.09 562.093 794.92 558.065 792.972 554.428C791.023 550.79 788.425 548.062 785.177 546.243C781.994 544.359 778.876 543.417 775.823 543.417C770.106 543.417 765.007 545.983 760.525 551.115C754.614 557.87 751.658 567.744 751.658 580.736C751.658 593.857 754.516 603.926 760.232 610.942C765.949 617.892 772.315 621.367 779.33 621.367C785.242 621.367 790.958 618.412 796.479 612.501ZM855.917 490.8C858.645 490.8 860.951 491.775 862.835 493.724C864.784 495.607 865.758 497.913 865.758 500.642C865.758 503.37 864.784 505.708 862.835 507.657C860.951 509.606 858.645 510.58 855.917 510.58C853.188 510.58 850.85 509.606 848.901 507.657C846.952 505.708 845.978 503.37 845.978 500.642C845.978 497.913 846.92 495.607 848.804 493.724C850.752 491.775 853.123 490.8 855.917 490.8ZM864.004 537.473V609.188C864.004 614.774 864.394 618.509 865.173 620.393C866.018 622.212 867.22 623.576 868.779 624.486C870.402 625.395 873.326 625.85 877.548 625.85V629.357H834.188V625.85C838.54 625.85 841.463 625.427 842.957 624.583C844.451 623.738 845.621 622.342 846.465 620.393C847.375 618.444 847.829 614.709 847.829 609.188V574.792C847.829 565.113 847.537 558.845 846.952 555.987C846.498 553.908 845.783 552.479 844.809 551.699C843.834 550.855 842.503 550.433 840.814 550.433C838.995 550.433 836.786 550.92 834.188 551.894L832.824 548.386L859.717 537.473H864.004ZM964.56 595.449C962.157 607.206 957.447 616.268 950.432 622.634C943.416 628.935 935.654 632.086 927.144 632.086C917.01 632.086 908.176 627.831 900.641 619.321C893.106 610.812 889.338 599.314 889.338 584.828C889.338 570.797 893.495 559.397 901.81 550.627C910.19 541.858 920.226 537.473 931.918 537.473C940.688 537.473 947.898 539.812 953.55 544.489C959.201 549.101 962.027 553.908 962.027 558.91C962.027 561.378 961.215 563.392 959.591 564.951C958.032 566.445 955.823 567.192 952.965 567.192C949.132 567.192 946.242 565.958 944.293 563.489C943.189 562.125 942.442 559.527 942.052 555.694C941.727 551.862 940.428 548.938 938.154 546.925C935.881 544.976 932.73 544.002 928.703 544.002C922.207 544.002 916.978 546.405 913.015 551.212C907.754 557.578 905.123 565.99 905.123 576.449C905.123 587.102 907.721 596.521 912.918 604.706C918.18 612.825 925.26 616.885 934.16 616.885C940.525 616.885 946.242 614.709 951.309 610.357C954.881 607.369 958.357 601.945 961.734 594.085L964.56 595.449ZM1027.99 616.496C1018.83 623.576 1013.08 627.668 1010.75 628.773C1007.24 630.397 1003.5 631.209 999.54 631.209C993.369 631.209 988.27 629.098 984.243 624.875C980.28 620.653 978.299 615.099 978.299 608.213C978.299 603.861 979.273 600.094 981.222 596.911C983.885 592.493 988.497 588.336 995.058 584.438C1001.68 580.541 1012.66 575.799 1027.99 570.212V566.705C1027.99 557.805 1026.56 551.699 1023.71 548.386C1020.91 545.073 1016.82 543.417 1011.43 543.417C1007.34 543.417 1004.09 544.521 1001.68 546.73C999.216 548.938 997.981 551.472 997.981 554.33L998.176 559.981C998.176 562.97 997.397 565.276 995.838 566.9C994.344 568.524 992.363 569.336 989.894 569.336C987.491 569.336 985.509 568.491 983.95 566.802C982.456 565.113 981.709 562.807 981.709 559.884C981.709 554.298 984.567 549.166 990.284 544.489C996 539.812 1004.02 537.473 1014.35 537.473C1022.28 537.473 1028.77 538.805 1033.84 541.468C1037.67 543.482 1040.5 546.632 1042.32 550.92C1043.49 553.713 1044.07 559.429 1044.07 568.069V598.372C1044.07 606.882 1044.23 612.111 1044.56 614.06C1044.88 615.943 1045.4 617.21 1046.12 617.86C1046.9 618.509 1047.77 618.834 1048.75 618.834C1049.79 618.834 1050.7 618.607 1051.47 618.152C1052.84 617.308 1055.47 614.937 1059.37 611.039V616.496C1052.09 626.239 1045.14 631.111 1038.52 631.111C1035.33 631.111 1032.8 630.007 1030.92 627.798C1029.03 625.59 1028.06 621.822 1027.99 616.496ZM1027.99 610.162V576.156C1018.18 580.054 1011.85 582.814 1008.99 584.438C1003.86 587.297 1000.19 590.285 997.981 593.403C995.773 596.521 994.669 599.931 994.669 603.634C994.669 608.311 996.065 612.208 998.858 615.326C1001.65 618.379 1004.87 619.906 1008.5 619.906C1013.44 619.906 1019.94 616.658 1027.99 610.162ZM1096.78 490.8V609.188C1096.78 614.774 1097.17 618.477 1097.95 620.296C1098.8 622.115 1100.06 623.511 1101.75 624.486C1103.44 625.395 1106.59 625.85 1111.2 625.85V629.357H1067.45V625.85C1071.55 625.85 1074.34 625.427 1075.83 624.583C1077.33 623.738 1078.5 622.342 1079.34 620.393C1080.19 618.444 1080.61 614.709 1080.61 609.188V528.119C1080.61 518.051 1080.38 511.88 1079.93 509.606C1079.47 507.267 1078.73 505.676 1077.69 504.832C1076.71 503.987 1075.44 503.565 1073.89 503.565C1072.2 503.565 1070.05 504.084 1067.45 505.124L1065.8 501.713L1092.4 490.8H1096.78Z" fill="white"></path><path d="M1678 464.5C1463.5 830 568 816.5 346.5 714C1084.5 832 1555.65 613.385 1619.5 394C1646.85 244.5 1473.55 106.211 1264 42C1722.4 166.4 1726.5 369 1678 464.5Z" fill="#EE0800"></path></svg> 